<svg width="121" height="27" viewBox="0 0 121 27" fill="none" xmlns="http://www.w3.org/2000/svg">
<mask id="mask0_54_2829" style="mask-type:luminance" maskUnits="userSpaceOnUse" x="0" y="0" width="121" height="27">
<path d="M120.372 0.750732H0.326111V26.4349H120.372V0.750732Z" fill="white"/>
</mask>
<g mask="url(#mask0_54_2829)">
<path d="M25.2363 16.6508C23.5856 23.3797 16.8795 27.4747 10.2577 25.7968C3.63855 24.1192 -0.390941 17.3035 1.26056 10.5751C2.91051 3.84545 9.61655 -0.250038 16.2364 1.42757C22.8579 3.10518 26.887 9.92157 25.2363 16.6508Z" fill="#838CA6"/>
<path d="M18.6957 11.8229C18.9417 10.1516 17.6896 9.25313 15.9774 8.65376L16.5327 6.38974L15.1768 6.04629L14.636 8.25065C14.2796 8.16037 13.9133 8.0752 13.5496 7.99079L14.0941 5.77192L12.7389 5.42847L12.1831 7.6917C11.8881 7.62341 11.5984 7.5559 11.3172 7.48486L11.3188 7.47778L9.44864 7.00324L9.08791 8.47517C9.08791 8.47517 10.094 8.7095 10.0728 8.72402C10.622 8.86336 10.7213 9.23271 10.7047 9.52553L10.072 12.1047C10.1099 12.1146 10.1589 12.1287 10.213 12.1507C10.1678 12.1393 10.1195 12.1267 10.0697 12.1146L9.18292 15.7276C9.11572 15.8972 8.9454 16.1516 8.56149 16.055C8.57501 16.075 7.57585 15.805 7.57585 15.805L6.90265 17.3824L8.66732 17.8296C8.99561 17.9132 9.31733 18.0007 9.63404 18.0832L9.07285 20.3731L10.4273 20.7165L10.9831 18.4509C11.3531 18.5529 11.7123 18.6472 12.0638 18.7358L11.5099 20.9909L12.866 21.3344L13.4272 19.0488C15.7394 19.4934 17.4783 19.314 18.2101 17.1887C18.7999 15.4772 18.1809 14.4901 16.9642 13.8463C17.8503 13.6387 18.5176 13.0464 18.6957 11.8229ZM15.5974 16.2383C15.1783 17.9496 12.343 17.0246 11.4238 16.7925L12.1685 13.7588C13.0877 13.992 16.0353 14.4536 15.5974 16.2383ZM16.0168 11.7982C15.6344 13.3549 13.2746 12.564 12.5091 12.3701L13.1842 9.61856C13.9498 9.81246 16.415 10.1744 16.0168 11.7982Z" fill="#242D44"/>
<path d="M37.107 8.65293C38.1092 8.65293 38.9752 8.83545 39.7028 9.19382C40.4339 9.55572 41.0371 10.0432 41.5211 10.6563C41.9985 11.2726 42.3538 11.9928 42.5833 12.8183C42.8111 13.6461 42.9254 14.5359 42.9254 15.4886C42.9254 16.9519 42.6617 18.3343 42.129 19.6375C41.5964 20.9425 40.8739 22.0745 39.9546 23.0401C39.0362 24.0045 37.9517 24.7649 36.7011 25.3265C35.4523 25.8886 34.0948 26.1697 32.6372 26.1697C32.4487 26.1697 32.1173 26.1641 31.6492 26.1543C31.1811 26.1446 30.643 26.0955 30.0405 26.0126C29.4342 25.9267 28.7931 25.7996 28.116 25.6292C27.4394 25.462 26.7966 25.2277 26.1915 24.9301L31.6033 1.82045L36.4504 1.05701L34.5127 9.2578C34.9275 9.06782 35.3454 8.92064 35.7625 8.81348C36.18 8.70788 36.6281 8.65293 37.107 8.65293ZM33.0411 22.2618C33.7711 22.2618 34.4591 22.0792 35.1052 21.7209C35.7533 21.3622 36.3124 20.8777 36.781 20.2745C37.2495 19.6684 37.6202 18.9858 37.8907 18.2231C38.161 17.4606 38.2977 16.665 38.2977 15.8371C38.2977 14.8201 38.1305 14.0268 37.7972 13.4534C37.4639 12.8823 36.847 12.5949 35.9513 12.5949C35.6578 12.5949 35.2798 12.6519 34.8109 12.7535C34.3404 12.8615 33.9194 13.0856 33.5421 13.4228L31.4788 22.1319C31.6033 22.1543 31.7133 22.1754 31.8072 22.1955C31.8991 22.217 32.0007 22.2323 32.1018 22.243C32.2089 22.2551 32.3313 22.2614 32.4792 22.2614C32.6272 22.2614 32.8122 22.2618 33.0411 22.2618Z" fill="#838CA6"/>
<path d="M47.9536 25.7253H43.3238L47.2336 9.00541H51.895L47.9536 25.7253ZM50.2064 6.96826C49.5602 6.96826 48.9744 6.77279 48.4545 6.38106C47.9304 5.99169 47.6709 5.39232 47.6709 4.58452C47.6709 4.1402 47.7597 3.72336 47.9358 3.33005C48.1146 2.93753 48.3483 2.59959 48.641 2.31227C48.9334 2.0273 49.2721 1.79964 49.6568 1.62811C50.0438 1.45933 50.4555 1.37494 50.8943 1.37494C51.54 1.37494 52.1228 1.57041 52.6447 1.96215C53.1646 2.35583 53.426 2.9552 53.426 3.75867C53.426 4.20458 53.3376 4.62299 53.1599 5.0155C52.9834 5.40803 52.7498 5.74597 52.457 6.03329C52.1669 6.31865 51.8251 6.54552 51.4411 6.71548C51.0537 6.88701 50.6436 6.96826 50.2064 6.96826Z" fill="#838CA6"/>
<path d="M55.9517 4.84046L60.8009 4.07703L59.61 9.00543H64.8033L63.8656 12.8827H58.7036L57.3286 18.7312C57.2019 19.2186 57.1302 19.6739 57.1101 20.0971C57.0872 20.5222 57.1402 20.8872 57.2653 21.1946C57.3897 21.5026 57.6133 21.7402 57.9377 21.9082C58.2606 22.079 58.723 22.1649 59.3293 22.1649C59.8286 22.1649 60.3153 22.1166 60.7858 22.0207C61.2535 21.9266 61.7273 21.7954 62.2071 21.6239L62.5524 25.2493C61.9266 25.4824 61.2493 25.6829 60.5193 25.8517C59.7881 26.0229 58.9227 26.1052 57.9223 26.1052C56.484 26.1052 55.3689 25.8882 54.5745 25.456C53.7812 25.0208 53.2204 24.4261 52.8848 23.6732C52.5538 22.9231 52.4059 22.0584 52.4471 21.0843C52.4901 20.1077 52.6348 19.0813 52.8848 18.0003L55.9517 4.84046Z" fill="#838CA6"/>
<path d="M64.5984 19.0506C64.5984 17.6104 64.8277 16.2525 65.2862 14.9811C65.7439 13.7085 66.4032 12.5958 67.2587 11.6408C68.1111 10.6905 69.1497 9.93765 70.372 9.38498C71.5887 8.83547 72.9509 8.55835 74.4521 8.55835C75.3917 8.55835 76.2311 8.64863 76.9696 8.82958C77.711 9.0121 78.382 9.248 78.9887 9.54395L77.3921 13.2336C76.9749 13.0617 76.5419 12.9102 76.0944 12.7728C75.6464 12.6326 75.0994 12.5651 74.4526 12.5651C72.9072 12.5651 71.6856 13.1064 70.7764 14.1854C69.8706 15.2652 69.4146 16.7188 69.4146 18.5419C69.4146 19.6225 69.644 20.4962 70.1044 21.1647C70.5624 21.8332 71.4086 22.1657 72.6372 22.1657C73.2436 22.1657 73.8288 22.1013 74.3892 21.9756C74.9538 21.8485 75.4525 21.6884 75.8916 21.4992L76.2373 25.2815C75.6518 25.5122 75.0059 25.7207 74.2976 25.9032C73.5878 26.0794 72.7427 26.1709 71.7628 26.1709C70.4693 26.1709 69.3744 25.9785 68.4788 25.5998C67.5827 25.2151 66.8424 24.7044 66.2591 24.0576C65.6729 23.4091 65.2519 22.652 64.9916 21.783C64.7311 20.9147 64.5984 20.0025 64.5984 19.0506Z" fill="#838CA6"/>
<path d="M85.164 26.17C84.059 26.17 83.0992 25.9989 82.285 25.6602C81.4732 25.3214 80.8007 24.8461 80.269 24.2298C79.7363 23.6167 79.3377 22.8903 79.0647 22.053C78.7916 21.2161 78.6604 20.2894 78.6604 19.2739C78.6604 18.0003 78.8615 16.7269 79.2682 15.4571C79.673 14.1846 80.2735 13.0412 81.0685 12.025C81.8571 11.0072 82.83 10.1751 83.9756 9.52629C85.1199 8.88178 86.4362 8.55756 87.9146 8.55756C88.9995 8.55756 89.9542 8.7291 90.7797 9.06783C91.6011 9.40579 92.2778 9.88504 92.8127 10.4982C93.3419 11.1144 93.744 11.8378 94.0143 12.6762C94.2866 13.5115 94.4209 14.4406 94.4209 15.4568C94.4209 16.7266 94.2225 17.9998 93.8285 19.2736C93.4342 20.541 92.849 21.6871 92.0766 22.7058C91.3057 23.722 90.3416 24.5537 89.1838 25.1997C88.0274 25.8458 86.6865 26.17 85.164 26.17ZM87.4778 12.5647C86.7915 12.5647 86.1847 12.7673 85.6652 13.1672C85.1438 13.5719 84.7059 14.0806 84.3529 14.6941C83.996 15.3104 83.7314 15.9823 83.5526 16.7128C83.3753 17.4449 83.2885 18.1368 83.2885 18.7943C83.2885 19.8552 83.4568 20.6816 83.7879 21.2761C84.1234 21.8677 84.7263 22.1653 85.6027 22.1653C86.2913 22.1653 86.8951 21.9642 87.4176 21.56C87.9359 21.1584 88.3743 20.6493 88.7299 20.0346C89.0846 19.4216 89.3513 18.7477 89.5303 18.016C89.7051 17.2863 89.7944 16.5904 89.7944 15.9341C89.7944 14.8759 89.6267 14.0477 89.2927 13.4538C88.959 12.8623 88.3534 12.5647 87.4778 12.5647Z" fill="#838CA6"/>
<path d="M99.4674 25.7253H94.8339L98.7436 9.00541H103.407L99.4674 25.7253ZM101.717 6.96826C101.071 6.96826 100.485 6.77279 99.9663 6.38106C99.4451 5.99169 99.1831 5.39232 99.1831 4.58452C99.1831 4.1402 99.2732 3.72336 99.4496 3.33005C99.6261 2.93753 99.8614 2.59959 100.154 2.31227C100.445 2.0273 100.787 1.79964 101.171 1.62811C101.555 1.45933 101.967 1.37494 102.404 1.37494C103.051 1.37494 103.636 1.57041 104.157 1.96215C104.678 2.35583 104.941 2.9552 104.941 3.75867C104.941 4.20458 104.848 4.62299 104.673 5.0155C104.498 5.40803 104.262 5.74597 103.971 6.03329C103.677 6.31865 103.34 6.54552 102.955 6.71548C102.567 6.88701 102.156 6.96826 101.717 6.96826Z" fill="#838CA6"/>
<path d="M106.742 9.76733C107.094 9.66292 107.486 9.53731 107.913 9.40071C108.341 9.26412 108.82 9.13695 109.354 9.02233C109.883 8.90418 110.48 8.80841 111.136 8.73422C111.792 8.65847 112.54 8.62158 113.371 8.62158C115.812 8.62158 117.496 9.34419 118.425 10.7851C119.353 12.226 119.514 14.198 118.911 16.6975L116.782 25.7254H112.122L114.186 16.8876C114.311 16.3356 114.41 15.8023 114.483 15.281C114.557 14.7645 114.553 14.3091 114.467 13.915C114.384 13.5256 114.191 13.2069 113.89 12.96C113.584 12.7171 113.123 12.595 112.497 12.595C111.893 12.595 111.279 12.6609 110.652 12.7881L107.617 25.7249H102.955L106.742 9.76733Z" fill="#838CA6"/>
</g>
</svg>
