<svg width="137" height="35" viewBox="0 0 137 35" fill="none" xmlns="http://www.w3.org/2000/svg">
<path fill-rule="evenodd" clip-rule="evenodd" d="M46.6356 13.832C46.7195 13.9166 46.8178 13.9589 46.9298 13.9589H52.2767C53.6668 13.9589 54.7345 13.643 55.4799 13.0112C56.2254 12.3794 56.5981 11.4937 56.5981 10.3542C56.5981 9.76752 56.4411 9.24008 56.1273 8.77186C55.8134 8.30364 55.4267 7.96799 54.967 7.7649C55.3146 7.58438 55.6313 7.29669 55.9171 6.9018C56.203 6.50692 56.3459 6.0387 56.3459 5.49715C56.3459 4.41403 55.9984 3.57915 55.3034 2.99245C54.6084 2.40577 53.549 2.11243 52.1254 2.11243H46.9298C46.8065 2.11243 46.7056 2.15474 46.6271 2.23936C46.5487 2.32397 46.5094 2.42834 46.5094 2.55244V13.5359C46.5094 13.6487 46.5514 13.7473 46.6356 13.832ZM52.7308 6.46179C52.5065 6.68744 52.1871 6.80026 51.7724 6.80026H49.6706V4.39711H51.7724C52.1984 4.39711 52.5206 4.50712 52.7392 4.72712C52.9578 4.94713 53.0671 5.23201 53.0671 5.58177C53.0671 5.9428 52.955 6.23615 52.7308 6.46179ZM51.9237 11.6743C52.3609 11.6743 52.7 11.5473 52.941 11.2935C53.182 11.0396 53.3024 10.7265 53.3024 10.3542C53.3024 9.97061 53.1792 9.65189 52.9325 9.39803C52.6859 9.14418 52.3496 9.01726 51.9237 9.01726H49.6706V11.6743H51.9237ZM57.34 13.8489C57.4129 13.9223 57.4941 13.9589 57.5839 13.9589H59.7697C60.0387 13.9589 60.2293 13.8349 60.3415 13.5866L60.9468 11.945H65.352L65.9575 13.5866C66.0695 13.8349 66.2601 13.9589 66.5291 13.9589H68.715C68.8047 13.9589 68.8859 13.9223 68.9589 13.8489C69.0316 13.7756 69.0681 13.6937 69.0681 13.6036C69.0681 13.5359 69.0625 13.485 69.0513 13.4512L65.1336 2.60321C65.0214 2.27602 64.7972 2.11243 64.461 2.11243H61.8378C61.5016 2.11243 61.2774 2.27602 61.1654 2.60321L57.2475 13.4512C57.2363 13.485 57.2307 13.5359 57.2307 13.6036C57.2307 13.6937 57.2672 13.7756 57.34 13.8489ZM64.6459 9.4065L63.1494 5.09098L61.6529 9.4065H64.6459ZM70.4826 13.832C70.5667 13.9166 70.6648 13.9589 70.7768 13.9589H72.9123C73.0357 13.9589 73.1394 13.9194 73.2234 13.8405C73.3075 13.7614 73.3495 13.6599 73.3495 13.5359V7.57875L77.3009 13.6374C77.4241 13.8517 77.6148 13.9589 77.8725 13.9589H79.7726C79.896 13.9589 79.9968 13.9166 80.0753 13.832C80.1537 13.7473 80.1929 13.643 80.1929 13.5189V2.55244C80.1929 2.42834 80.1537 2.32397 80.0753 2.23936C79.9968 2.15474 79.896 2.11243 79.7726 2.11243H77.6371C77.5139 2.11243 77.413 2.15474 77.3345 2.23936C77.256 2.32397 77.2167 2.42834 77.2167 2.55244V8.74647L73.2485 2.43398C73.1253 2.21962 72.9347 2.11243 72.6769 2.11243H70.7768C70.6536 2.11243 70.5526 2.15474 70.4742 2.23936C70.3957 2.32397 70.3565 2.42834 70.3565 2.55244V13.5359C70.3565 13.6487 70.3986 13.7473 70.4826 13.832ZM82.9106 13.9589C82.7986 13.9589 82.7005 13.9166 82.6163 13.832C82.5322 13.7473 82.4902 13.6487 82.4902 13.5359V2.55244C82.4902 2.42834 82.5295 2.32397 82.6079 2.23936C82.6864 2.15474 82.7873 2.11243 82.9106 2.11243H85.1637C85.2871 2.11243 85.3879 2.15474 85.4664 2.23936C85.5448 2.32397 85.5841 2.42834 85.5841 2.55244V6.24179L88.5603 2.45091C88.6835 2.22525 88.9021 2.11243 89.216 2.11243H91.7886C91.8783 2.11243 91.9595 2.1491 92.0325 2.22244C92.1052 2.29577 92.1418 2.37757 92.1418 2.46783C92.1418 2.55808 92.1193 2.62578 92.0745 2.67091L88.1567 7.78183L92.394 13.4005C92.4387 13.4456 92.4612 13.5133 92.4612 13.6036C92.4612 13.6937 92.4248 13.7756 92.3519 13.8489C92.2791 13.9223 92.1921 13.9589 92.0913 13.9589H89.4515C89.272 13.9589 89.1263 13.9223 89.0143 13.8489C88.9021 13.7756 88.8237 13.6995 88.7788 13.6204L85.5841 9.49112V13.5359C85.5841 13.6487 85.5448 13.7473 85.4664 13.832C85.3879 13.9166 85.2871 13.9589 85.1637 13.9589H82.9106ZM98.7435 32.2606C97.6561 32.2606 96.7314 32.1026 95.9691 31.7867C95.2069 31.4709 94.6296 31.0533 94.2373 30.5344C93.8448 30.0154 93.6374 29.4512 93.6151 28.842C93.6151 28.7404 93.6515 28.6559 93.7244 28.5882C93.7972 28.5205 93.8841 28.4866 93.985 28.4866H96.2213C96.3558 28.4866 96.4651 28.5092 96.5492 28.5543C96.6333 28.5994 96.7258 28.6785 96.8266 28.7913C96.9723 29.062 97.1994 29.2849 97.5076 29.4597C97.8159 29.6346 98.2278 29.722 98.7435 29.722C99.3488 29.722 99.814 29.629 100.139 29.4429C100.464 29.2566 100.627 29 100.627 28.6729C100.627 28.4359 100.543 28.2412 100.374 28.0889C100.206 27.9365 99.9373 27.8012 99.5674 27.6828C99.1975 27.5642 98.665 27.4317 97.9701 27.2851C96.6136 27.0143 95.5992 26.6025 94.9266 26.0497C94.254 25.4967 93.9177 24.707 93.9177 23.6803C93.9177 22.9809 94.1112 22.3575 94.4979 21.8103C94.8846 21.2631 95.4338 20.8372 96.1457 20.5326C96.8574 20.2279 97.6842 20.0756 98.6257 20.0756C99.6123 20.0756 100.467 20.2477 101.19 20.5918C101.913 20.9359 102.468 21.3647 102.855 21.878C103.241 22.3913 103.446 22.8962 103.468 23.3927C103.468 23.4942 103.435 23.5816 103.367 23.655C103.3 23.7283 103.216 23.765 103.115 23.765H100.761C100.515 23.765 100.324 23.6635 100.19 23.4604C100.122 23.2234 99.9485 23.0231 99.6682 22.8595C99.3881 22.696 99.0406 22.6142 98.6257 22.6142C98.155 22.6142 97.7906 22.6987 97.5329 22.868C97.275 23.0372 97.1462 23.2854 97.1462 23.6126C97.1462 23.9399 97.3143 24.1965 97.6505 24.3826C97.9869 24.5689 98.6145 24.7578 99.5337 24.9496C100.587 25.1414 101.425 25.3811 102.048 25.6689C102.67 25.9565 103.129 26.3288 103.426 26.7859C103.723 27.2427 103.872 27.821 103.872 28.5205C103.872 29.2877 103.653 29.9533 103.216 30.5175C102.779 31.0816 102.174 31.5131 101.4 31.8121C100.627 32.1111 99.7411 32.2606 98.7435 32.2606ZM50.3683 31.9728C50.4525 32.0519 50.5562 32.0914 50.6794 32.0914H53.0166C53.1399 32.0914 53.2436 32.0519 53.3277 31.9728C53.4117 31.8939 53.4538 31.7924 53.4538 31.6682V23.0034H56.4131C56.5365 23.0034 56.6401 22.9639 56.7241 22.885C56.8083 22.8059 56.8503 22.7043 56.8503 22.5803V20.6848C56.8503 20.5608 56.8083 20.4564 56.7241 20.3718C56.6401 20.2871 56.5365 20.2448 56.4131 20.2448H47.2829C47.1596 20.2448 47.0559 20.2871 46.9718 20.3718C46.8878 20.4564 46.8457 20.5608 46.8457 20.6848V22.5803C46.8457 22.7043 46.8878 22.8059 46.9718 22.885C47.0559 22.9639 47.1596 23.0034 47.2829 23.0034H50.2422V31.6682C50.2422 31.7924 50.2842 31.8939 50.3683 31.9728ZM58.4666 31.9645C58.5507 32.049 58.6488 32.0914 58.7608 32.0914H61.0644C61.1877 32.0914 61.2914 32.0519 61.3755 31.9728C61.4596 31.8939 61.5016 31.7924 61.5016 31.6682V27.962H63.1158L64.9653 31.6344C65.0999 31.939 65.3297 32.0914 65.6548 32.0914H68.0257C68.1265 32.0914 68.2106 32.0546 68.2778 31.9813C68.3451 31.908 68.3787 31.8262 68.3787 31.7359C68.3787 31.6796 68.3619 31.6175 68.3282 31.5498L66.0583 27.4205C66.6973 27.1158 67.1989 26.687 67.5632 26.1342C67.9276 25.5814 68.1096 24.9101 68.1096 24.1203C68.1096 22.8906 67.6922 21.9372 66.857 21.2602C66.0219 20.5833 64.8645 20.2448 63.3848 20.2448H58.7608C58.6376 20.2448 58.5366 20.2871 58.4583 20.3718C58.3797 20.4564 58.3405 20.5608 58.3405 20.6848V31.6682C58.3405 31.7811 58.3825 31.8798 58.4666 31.9645ZM63.368 25.4743C63.8501 25.4743 64.2171 25.353 64.4693 25.1104C64.7216 24.8677 64.8477 24.5321 64.8477 24.1033C64.8477 23.6747 64.7216 23.3306 64.4693 23.0711C64.2171 22.8116 63.8501 22.6819 63.368 22.6819H61.5016V25.4743H63.368ZM69.1375 31.9813C69.2103 32.0546 69.2915 32.0914 69.3813 32.0914H71.5672C71.8361 32.0914 72.0267 31.9672 72.1389 31.719L72.7442 30.0775H77.1496L77.7549 31.719C77.8669 31.9672 78.0575 32.0914 78.3265 32.0914H80.5125C80.6021 32.0914 80.6833 32.0546 80.7562 31.9813C80.8292 31.908 80.8655 31.8262 80.8655 31.7359C80.8655 31.6682 80.8599 31.6175 80.8487 31.5837L76.931 20.7357C76.8188 20.4084 76.5946 20.2448 76.2584 20.2448H73.6354C73.299 20.2448 73.0748 20.4084 72.9628 20.7357L69.045 31.5837C69.0338 31.6175 69.0282 31.6682 69.0282 31.7359C69.0282 31.8262 69.0646 31.908 69.1375 31.9813ZM73.4503 27.5389H76.4433L74.9468 23.2234L73.4503 27.5389ZM82.2801 31.9645C82.3641 32.049 82.4622 32.0914 82.5744 32.0914H84.7097C84.8331 32.0914 84.9368 32.0519 85.0207 31.9728C85.1049 31.8939 85.1469 31.7924 85.1469 31.6682V25.7112L89.0983 31.7698C89.2216 31.9842 89.4122 32.0914 89.6701 32.0914H91.57C91.6934 32.0914 91.7942 32.049 91.8727 31.9645C91.9512 31.8798 91.9903 31.7755 91.9903 31.6513V20.6848C91.9903 20.5608 91.9512 20.4564 91.8727 20.3718C91.7942 20.2871 91.6934 20.2448 91.57 20.2448H89.4346C89.3112 20.2448 89.2104 20.2871 89.1319 20.3718C89.0535 20.4564 89.0143 20.5608 89.0143 20.6848V26.8789L85.0461 20.5664C84.9227 20.352 84.7321 20.2448 84.4743 20.2448H82.5744C82.451 20.2448 82.3501 20.2871 82.2716 20.3718C82.1931 20.4564 82.154 20.5608 82.154 20.6848V31.6682C82.154 31.7811 82.196 31.8798 82.2801 31.9645ZM105.623 31.9645C105.707 32.049 105.805 32.0914 105.917 32.0914H108.17C108.293 32.0914 108.394 32.049 108.473 31.9645C108.551 31.8798 108.59 31.7811 108.59 31.6682V27.9112H113.399C113.523 27.9112 113.626 27.8717 113.71 27.7928C113.794 27.7137 113.836 27.6122 113.836 27.4882V25.6942C113.836 25.5701 113.794 25.4658 113.71 25.3811C113.626 25.2965 113.523 25.2542 113.399 25.2542H108.59V22.9018H113.736C113.859 22.9018 113.963 22.8623 114.047 22.7834C114.131 22.7043 114.173 22.6028 114.173 22.4788V20.6848C114.173 20.5608 114.131 20.4564 114.047 20.3718C113.963 20.2871 113.859 20.2448 113.736 20.2448H105.917C105.794 20.2448 105.693 20.2871 105.614 20.3718C105.536 20.4564 105.497 20.5608 105.497 20.6848V31.6682C105.497 31.7811 105.539 31.8798 105.623 31.9645ZM116.369 32.0914C116.257 32.0914 116.159 32.049 116.075 31.9645C115.991 31.8798 115.949 31.7811 115.949 31.6682V20.6848C115.949 20.5608 115.988 20.4564 116.067 20.3718C116.145 20.2871 116.246 20.2448 116.369 20.2448H124.306C124.429 20.2448 124.533 20.2871 124.617 20.3718C124.701 20.4564 124.743 20.5608 124.743 20.6848V22.3602C124.743 22.4844 124.701 22.5859 124.617 22.6649C124.533 22.7439 124.429 22.7834 124.306 22.7834H118.992V24.9327H123.936C124.059 24.9327 124.163 24.975 124.247 25.0596C124.331 25.1441 124.373 25.2486 124.373 25.3727V26.9127C124.373 27.0369 124.331 27.1412 124.247 27.2259C124.163 27.3104 124.059 27.3528 123.936 27.3528H118.992V29.5528H124.44C124.563 29.5528 124.667 29.5951 124.751 29.6798C124.835 29.7643 124.877 29.8688 124.877 29.9928V31.6682C124.877 31.7924 124.835 31.8939 124.751 31.9728C124.667 32.0519 124.563 32.0914 124.44 32.0914H116.369ZM126.88 31.9645C126.964 32.049 127.063 32.0914 127.175 32.0914H129.478C129.602 32.0914 129.705 32.0519 129.789 31.9728C129.873 31.8939 129.915 31.7924 129.915 31.6682V27.962H131.53L133.379 31.6344C133.514 31.939 133.743 32.0914 134.068 32.0914H136.439C136.54 32.0914 136.624 32.0546 136.692 31.9813C136.759 31.908 136.792 31.8262 136.792 31.7359C136.792 31.6796 136.776 31.6175 136.742 31.5498L134.472 27.4205C135.111 27.1158 135.613 26.687 135.977 26.1342C136.341 25.5814 136.523 24.9101 136.523 24.1203C136.523 22.8906 136.106 21.9372 135.271 21.2602C134.436 20.5833 133.278 20.2448 131.799 20.2448H127.175C127.051 20.2448 126.95 20.2871 126.872 20.3718C126.793 20.4564 126.754 20.5608 126.754 20.6848V31.6682C126.754 31.7811 126.796 31.8798 126.88 31.9645ZM131.782 25.4743C132.264 25.4743 132.631 25.353 132.883 25.1104C133.135 24.8677 133.261 24.5321 133.261 24.1033C133.261 23.6747 133.135 23.3306 132.883 23.0711C132.631 22.8116 132.264 22.6819 131.782 22.6819H129.915V25.4743H131.782Z" fill="#838CA6"/>
<path d="M33.9353 32.2529H1.61637C0.723428 32.2529 0 32.8663 0 33.624C0 34.3804 0.723428 34.9937 1.61637 34.9937H33.9345C34.8275 34.9937 35.5509 34.3804 35.5509 33.624C35.5502 32.8663 34.8267 32.2529 33.9353 32.2529Z" fill="#838CA6"/>
<path fill-rule="evenodd" clip-rule="evenodd" d="M2.01766 29.5064C2.01766 28.612 2.74313 28.1362 3.63607 28.1362L4.04015 28.1355V14.3457H3.63607C3.19036 14.3457 2.82864 13.9834 2.82864 13.5368C2.82864 13.0904 3.18959 12.728 3.63607 12.728H31.9149C32.3606 12.728 32.7223 13.0904 32.7223 13.5368C32.7223 13.9834 32.3621 14.3457 31.9149 14.3457H31.5115V28.1362H31.9149C32.8078 28.1362 33.5121 28.612 33.5121 29.5064C33.5121 30.401 32.8078 30.8937 31.9149 30.8937H3.63607C2.74313 30.8937 2.01766 30.401 2.01766 29.5064ZM12.3113 14.4458H6.83962V28.1495H12.3113V14.4458ZM23.2547 14.4458H28.7264V28.1495H23.2547V14.4458ZM20.5189 14.4458H15.0472V28.1495H20.5189V14.4458Z" fill="#838CA6"/>
<path d="M1.61639 11.2725H33.9345C33.9398 11.2725 33.9459 11.2725 33.9505 11.2725C34.8442 11.2725 35.5669 10.5477 35.5669 9.65322C35.5669 8.94213 35.1097 8.33946 34.4748 8.12114L18.4399 0.892864C18.0184 0.703355 17.5364 0.703355 17.1141 0.892864L0.953504 8.17723C0.258074 8.49107 -0.124072 9.24764 0.0363534 9.99359C0.196022 10.7395 0.854373 11.2725 1.61639 11.2725Z" fill="#838CA6"/>
</svg>
