<svg width="81" height="28" viewBox="0 0 81 28" fill="none" xmlns="http://www.w3.org/2000/svg">
<path fill-rule="evenodd" clip-rule="evenodd" d="M57.6536 7.29894C59.4732 7.29894 60.948 5.83334 60.948 4.02606C60.948 2.21773 59.4732 0.750732 57.6536 0.750732C55.836 0.750732 54.362 2.21773 54.362 4.02606C54.362 5.83334 55.836 7.29894 57.6536 7.29894ZM32.4223 9.06645C32.2736 9.43769 31.2037 12.4424 28.6161 15.5566V2.24096L21.7212 3.59571V27.7318H28.6161V20.2711C30.6129 23.2487 31.599 27.7318 31.599 27.7318H39.8575C39.0406 24.3554 35.4672 18.1299 35.4672 18.1299C38.6743 14.0875 40.0829 9.78006 40.307 9.06645H32.4223ZM50.5482 8.8145C44.3727 9.01155 41.2378 11.7661 41.2378 17.2417V27.7318H47.9751V19.1775C47.9751 15.8986 48.4068 14.4931 52.3204 14.3591V8.91057C51.6617 8.77157 50.5482 8.8145 50.5482 8.8145ZM10.1581 11.7242C9.31357 11.669 7.3584 11.5434 7.3584 9.79344C7.3584 7.68179 10.1733 7.68179 11.2291 7.68179C13.0855 7.68179 15.4898 8.2272 17.2068 8.73779C17.2068 8.73779 18.1646 9.07349 18.9797 9.41727L19.0554 9.43769V3.65448L18.9514 3.62387C16.925 2.91904 14.5689 2.24096 10.2005 2.24096C2.6687 2.24096 0 6.60327 0 10.3403C0 12.4945 0.928737 17.5645 9.5546 18.1493C10.2858 18.1939 12.2265 18.3051 12.2265 20.1135C12.2265 21.6065 10.6377 22.4869 7.9654 22.4869C5.03692 22.4869 2.1962 21.7444 0.47074 21.0403V26.9967C3.05379 27.6699 5.96565 28.0063 9.37833 28.0063C16.7427 28.0063 20.0411 23.8789 20.0411 19.7883C20.0411 15.1502 16.3503 12.1366 10.1581 11.7242ZM54.3137 27.7318H60.9965V9.08756H54.3137V27.7318ZM73.5798 3.42962V27.7318H80.2635V2.24096L73.5798 3.42962ZM63.8274 3.42962L70.5048 2.24096V27.7318H63.8274V3.42962Z" fill="#838CA6"/>
</svg>
