<svg width="83" height="51" viewBox="0 0 83 51" fill="none" xmlns="http://www.w3.org/2000/svg">
<path d="M17.0639 29.0075C17.0639 29.6735 17.397 30.0065 18.063 30.0065C19.2285 30.0065 19.8946 29.0075 20.0611 27.5089C19.7281 27.5089 19.728 27.5089 19.395 27.5089C17.8965 27.5089 17.0639 28.0085 17.0639 29.0075Z" fill="#838CA6"/>
<path d="M59.6893 29.0075C59.6893 29.6735 60.0223 30.0065 60.6883 30.0065C61.8539 30.0065 62.5199 29.0075 62.6864 27.5089C62.3534 27.5089 62.3534 27.5089 62.0203 27.5089C60.3553 27.5089 59.6893 28.0085 59.6893 29.0075Z" fill="#838CA6"/>
<path d="M39.3757 24.0123C38.5432 24.0123 37.8771 24.6783 37.7106 25.8438H40.7077C40.7077 25.5108 41.0407 24.0123 39.3757 24.0123Z" fill="#838CA6"/>
<path d="M75.5073 24.3453C74.3418 24.3453 73.3428 25.8438 73.3428 27.8419C73.3428 29.1739 73.8423 29.84 74.6748 29.84C76.0068 29.84 76.8393 28.3415 76.8393 26.3434C77.0058 25.0114 76.5064 24.3453 75.5073 24.3453Z" fill="#838CA6"/>
<path d="M58.1907 0.701599C51.8635 0.701599 46.0358 3.03265 41.5402 7.02877C37.2111 3.03265 31.3834 0.701599 25.0563 0.701599C11.4028 0.701599 0.246948 11.8575 0.246948 25.5109C0.246948 39.1643 11.4028 50.3201 25.0563 50.3201C31.3834 50.3201 37.2111 47.9891 41.5402 43.9929C45.8693 47.9891 51.697 50.3201 58.1907 50.3201C71.8441 50.3201 83 39.1643 83 25.5109C83 11.8575 71.8441 0.701599 58.1907 0.701599ZM10.7368 32.1711L12.2353 22.5137L8.73867 32.1711H6.90715L6.74069 22.5137L5.07564 32.1711H2.57806L4.74261 19.5167H8.5722L8.73867 27.3424L11.4028 19.5167H15.5654L13.4009 32.1711H10.7368ZM19.7281 32.1711V31.172C19.062 32.0045 18.063 32.3376 16.8975 32.3376C15.3989 32.3376 14.3999 31.172 14.3999 29.507C14.3999 27.0094 16.0649 25.5109 19.062 25.5109C19.395 25.5109 19.728 25.5109 20.2276 25.5109C20.3941 25.1779 20.394 25.0113 20.394 24.8448C20.394 24.1788 19.8945 23.8458 18.729 23.8458C17.3969 23.8458 16.398 24.1788 15.8985 24.3453C15.8985 24.1788 16.2314 22.0142 16.2314 22.0142C17.5634 21.6812 18.396 21.5147 19.395 21.5147C21.7261 21.5147 22.8916 22.5137 22.8916 24.5118C22.8916 25.0113 22.8916 25.6774 22.7251 26.5099C22.5586 28.0084 22.0591 31.172 21.8926 32.0045C21.5596 32.171 19.7281 32.1711 19.7281 32.1711ZM27.7203 26.0104C29.0523 26.6764 29.5518 27.509 29.5518 28.841C29.5518 31.1721 28.2198 32.3376 25.3892 32.3376C23.7241 32.3376 23.2247 32.171 22.5587 32.0045C22.5587 31.838 22.8916 29.6735 22.8916 29.6735C23.7241 30.0065 24.5567 30.0065 25.3892 30.0065C26.3882 30.0065 26.8878 29.6735 26.8878 29.0075C26.8878 28.508 26.7213 28.3414 25.5557 27.8419C24.0572 27.1759 23.5577 26.3433 23.5577 25.0113C23.5577 23.1797 24.5567 21.5147 27.5538 21.5147C28.2198 21.5147 29.2188 21.6812 29.8848 21.6812L29.5518 24.0123C28.8858 23.8458 28.2198 23.8458 27.5538 23.8458C26.7213 23.8458 26.2217 24.1789 26.2217 24.6784C26.3882 25.3444 26.5548 25.5109 27.7203 26.0104ZM33.548 29.84C33.881 29.84 34.0475 29.84 34.214 29.6735L33.881 32.0045C33.215 32.171 32.5489 32.3376 31.8829 32.3376C30.5509 32.3376 29.7184 31.505 29.7184 30.0065C29.7184 29.5069 29.8849 28.3414 30.0514 27.3424C30.2179 26.3434 31.2169 20.3492 31.2169 20.3492H33.881L33.548 21.8478H34.88L34.547 24.3453H33.2149C32.8819 26.3434 32.3824 28.6745 32.3824 29.0075C32.7154 29.507 33.0485 29.84 33.548 29.84ZM39.8751 30.0065C40.8742 30.0065 41.7067 29.84 42.7058 29.3405L42.2063 31.8381C41.2072 32.1711 40.3747 32.1711 39.3757 32.1711C36.3786 32.1711 34.88 30.6725 34.88 27.6754C34.88 24.1788 36.878 21.5147 39.5421 21.5147C41.7067 21.5147 43.2052 23.0133 43.2052 25.1779C43.2052 26.0104 43.0387 26.6764 42.8722 27.6754H37.5441C37.3776 29.3405 38.3766 30.0065 39.8751 30.0065ZM45.8694 32.1711H43.2052L43.3718 31.505C43.8713 28.3414 44.3708 25.1778 44.7038 22.0142H47.2014C47.2014 22.5137 47.0348 23.0133 47.0348 23.5128C47.8674 22.3473 48.5335 21.6813 49.699 21.8478C49.366 22.3473 48.8664 23.5128 48.6999 24.8448C47.0348 24.6783 46.8684 25.8439 45.8694 32.1711ZM56.1926 32.0045C55.1936 32.3375 54.5276 32.3376 53.8616 32.3376C51.031 32.3376 49.1995 30.173 49.1995 26.8429C49.1995 22.3473 51.697 19.1836 55.3601 19.1836C56.5256 19.1836 57.8578 19.6832 58.3573 19.8497L57.8577 22.5137C56.8587 22.0142 56.1927 21.8478 55.5267 21.8478C53.5286 21.8478 52.03 23.8458 52.03 26.5099C52.03 28.3414 53.029 29.507 54.5276 29.507C55.1936 29.507 55.8597 29.3405 56.8587 28.841L56.1926 32.0045ZM64.5179 32.1711C64.1849 32.1711 62.3533 32.1711 62.3533 32.1711V31.172C61.6873 32.0045 60.6883 32.3376 59.5227 32.3376C58.0242 32.3376 57.0252 31.172 57.0252 29.507C57.0252 27.0094 58.6903 25.5109 61.6874 25.5109C62.0204 25.5109 62.3533 25.5109 62.8528 25.5109C63.0193 25.1779 63.0194 25.0113 63.0194 24.8448C63.0194 24.1788 62.5199 23.8458 61.3543 23.8458C60.0223 23.8458 59.0233 24.1788 58.5237 24.3453C58.5237 24.1788 58.8568 22.0142 58.8568 22.0142C60.1888 21.6812 61.0213 21.5147 62.0203 21.5147C64.3514 21.5147 65.517 22.5137 65.517 24.5118C65.517 25.0113 65.5169 25.6774 65.3504 26.5099C65.0174 28.1749 64.5179 31.3386 64.5179 32.1711ZM68.181 32.1711H65.517L65.6834 31.505C66.183 28.3414 66.6824 25.1778 67.0155 22.0142H69.513C69.513 22.5137 69.3466 23.0133 69.3466 23.5128C70.1791 22.3473 70.8451 21.6813 72.0106 21.8478C71.6776 22.3473 71.1781 23.5128 71.0116 24.8448C69.3466 24.6783 69.0135 25.8439 68.181 32.1711ZM76.1732 32.1711L76.3398 31.172C75.6738 32.0045 74.8413 32.3376 73.8422 32.3376C71.8442 32.3376 70.5121 30.6726 70.5121 28.0085C70.5121 24.6784 72.5102 21.6812 74.8412 21.6812C75.8403 21.6812 76.6728 22.1808 77.3388 23.0133L78.0049 19.3502H80.6689L78.6708 32.0045H76.1732V32.1711Z" fill="#838CA6"/>
</svg>
