<svg width="83" height="28" viewBox="0 0 83 28" fill="none" xmlns="http://www.w3.org/2000/svg">
<path d="M35.9666 27.3613H29.243L33.4484 1.22461H40.1716L35.9666 27.3613Z" fill="#838CA6"/>
<path d="M60.3402 1.8636C59.014 1.33476 56.9105 0.750854 54.3096 0.750854C47.6699 0.750854 42.9942 4.30971 42.9656 9.39781C42.9104 13.1518 46.3132 15.2368 48.8582 16.4885C51.4595 17.7676 52.3437 18.6024 52.3437 19.7425C52.3172 21.4935 50.2417 22.3006 48.306 22.3006C45.6216 22.3006 44.1833 21.8845 41.9975 20.9103L41.1121 20.4927L40.1713 26.3598C41.7482 27.082 44.6535 27.7228 47.6699 27.7509C54.7247 27.7509 59.3177 24.2471 59.3721 18.8249C59.3989 15.8496 57.6021 13.5698 53.7284 11.7068C51.3767 10.5109 49.9366 9.70454 49.9366 8.48093C49.9642 7.36856 51.1547 6.2292 53.8092 6.2292C55.995 6.1734 57.601 6.7015 58.8177 7.22997L59.4258 7.50751L60.3402 1.8636Z" fill="#838CA6"/>
<path d="M69.2764 18.102C69.8301 16.6005 71.9607 10.7892 71.9607 10.7892C71.9328 10.845 72.5134 9.25994 72.8454 8.28689L73.3152 10.539C73.3152 10.539 74.5885 16.7953 74.865 18.102C73.8142 18.102 70.6044 18.102 69.2764 18.102ZM77.5758 1.22461H72.3751C70.7713 1.22461 69.5529 1.69691 68.8609 3.39318L58.8739 27.361H65.9287C65.9287 27.361 67.0902 24.1351 67.3399 23.4403C68.1138 23.4403 74.9767 23.4403 75.9724 23.4403C76.1654 24.3579 76.7747 27.361 76.7747 27.361H83L77.5758 1.22461Z" fill="#838CA6"/>
<path d="M23.6272 1.22461L17.0426 19.0473L16.3231 15.4327C15.1057 11.2618 11.2878 6.73031 7.02728 4.4771L13.0585 27.3336H20.1685L30.7368 1.22461H23.6272Z" fill="#838CA6"/>
<path d="M10.9283 1.22461H0.110668L0 1.75271C8.43839 3.92165 14.027 9.14981 16.3231 15.4338L13.9715 3.42164C13.5843 1.75234 12.3945 1.27967 10.9283 1.22461Z" fill="#838CA6"/>
</svg>
