<svg width="136" height="23" viewBox="0 0 136 23" fill="none" xmlns="http://www.w3.org/2000/svg">
<path fill-rule="evenodd" clip-rule="evenodd" d="M127.272 5.11336C127.095 4.29728 126.719 3.55584 126.142 2.91642C125.437 2.12771 124.552 1.61766 123.578 1.23949C122.552 0.846367 121.486 0.634891 120.398 0.517945C120.269 0.504015 120.14 0.490878 120.012 0.477741C119.819 0.458036 119.626 0.438331 119.433 0.415944C119.385 0.411688 119.337 0.415574 119.289 0.419447C119.196 0.426918 119.103 0.434362 119.01 0.383594H109.507C109.39 1.01691 109.271 1.64881 109.152 2.28252L109.151 2.28538L109.039 2.88407C108.77 4.36083 108.497 5.83507 108.224 7.31036C108.113 7.91054 108.001 8.51088 107.891 9.11163C107.552 10.9602 107.211 12.8014 106.864 14.65C106.773 15.1454 106.683 15.6439 106.594 16.1402C106.541 16.4315 106.488 16.7222 106.436 17.0112C106.389 17.2549 106.386 17.26 106.159 17.26H95.7126H95.6922C95.6233 17.2604 95.5494 17.2609 95.4609 17.2202C95.4835 17.1051 95.5048 16.9896 95.526 16.874C95.5539 16.7221 95.5818 16.5702 95.613 16.419C95.7078 15.8953 95.8059 15.3714 95.9045 14.8453L95.9062 14.8362C95.978 14.4531 96.0499 14.0687 96.1211 13.6821C96.1609 13.4582 96.1659 13.4582 96.3802 13.4582H100.234H102.458C102.491 13.4582 102.52 13.4585 102.546 13.4589C102.654 13.4602 102.709 13.4608 102.742 13.434C102.776 13.4062 102.786 13.349 102.806 13.2322C102.809 13.2137 102.813 13.1937 102.817 13.1721C102.959 12.366 103.106 11.5618 103.252 10.7596L103.253 10.758L103.254 10.7529C103.342 10.2698 103.43 9.78738 103.517 9.3057C103.547 9.13651 103.547 9.13154 103.367 9.13154C103.098 9.12823 102.826 9.12932 102.553 9.13043C102.417 9.13098 102.28 9.13154 102.144 9.13154H97.2221C97.0849 9.13154 97.0164 9.13154 96.9883 9.09788C96.9601 9.06424 96.9723 8.99704 96.9966 8.86269L96.9979 8.85537C97.0866 8.38241 97.1738 7.90847 97.2611 7.43421L97.2615 7.43225C97.3702 6.84182 97.4789 6.25089 97.5907 5.66073C97.6002 5.61003 97.6068 5.56768 97.6122 5.53229C97.6257 5.4459 97.6325 5.40109 97.6587 5.37819C97.687 5.35351 97.7376 5.35434 97.8427 5.35605C97.8746 5.35659 97.9116 5.35719 97.9543 5.35719C100.002 5.35221 102.054 5.35221 104.102 5.35221C104.117 5.35221 104.132 5.35191 104.147 5.35161C104.195 5.35066 104.245 5.34968 104.289 5.35719C104.426 5.36963 104.463 5.30245 104.488 5.18302C104.588 4.60241 104.692 4.0283 104.797 3.45259L104.819 3.32944C104.989 2.42877 105.158 1.52312 105.32 0.617471L105.325 0.591197C105.339 0.526238 105.354 0.456134 105.35 0.386084H91.493C91.4892 0.644141 91.4354 0.895082 91.3826 1.14212C91.3657 1.22127 91.3486 1.30035 91.3335 1.37881C91.1902 2.22186 91.0331 3.06027 90.8753 3.90135L90.875 3.90326L90.8725 3.9161C90.831 4.13747 90.7895 4.35904 90.7481 4.58091L90.704 4.81796L90.7025 4.82583C90.4859 5.98943 90.2677 7.161 90.0582 8.33038C89.9156 9.11037 89.7715 9.889 89.6275 10.6673L89.6261 10.6749C89.494 11.3887 89.3621 12.1022 89.2313 12.8163C89.1417 13.3007 89.053 13.7843 88.9645 14.2673C88.8463 14.9126 88.7282 15.5567 88.6085 16.2C88.5737 16.3791 88.5686 16.3842 88.3768 16.3842H83.7487C83.5395 16.3842 83.5294 16.3693 83.5719 16.1702C83.8558 14.6202 84.1473 13.0651 84.4412 11.5176L84.4434 11.5056L84.4441 11.5021C84.7196 10.0169 84.9951 8.53175 85.2681 7.04905C85.4717 5.94536 85.6777 4.84654 85.8837 3.74832C85.9726 3.27447 86.0613 2.80072 86.15 2.32675C86.231 1.90049 86.3107 1.46773 86.39 1.03692L86.4813 0.542837C86.4884 0.505616 86.4891 0.465891 86.4899 0.427219C86.4902 0.41166 86.4906 0.396088 86.4913 0.381104H79.2577L78.9883 1.84017C78.735 3.21246 78.4821 4.58315 78.2263 5.95929C77.9985 7.19071 77.7733 8.42214 77.5478 9.65444L77.5467 9.66034L77.2699 11.1717C77.1142 12.0078 76.9585 12.8452 76.8028 13.6825C76.6471 14.5196 76.4915 15.3567 76.3357 16.1926C76.3009 16.3817 76.2959 16.3867 76.1141 16.3867H71.6006C71.3913 16.3867 71.3913 16.3767 71.4337 16.1726C71.6083 15.2238 71.7839 14.2798 71.9593 13.3369L71.9608 13.3293C72.1579 12.2698 72.3548 11.2116 72.5496 10.1492C72.7719 8.95195 72.9977 7.75307 73.2234 6.55446L73.2238 6.55237C73.3872 5.68449 73.5508 4.81583 73.7129 3.94896C73.9196 2.84426 74.1239 1.74207 74.3231 0.637381L74.3299 0.607344C74.3465 0.535598 74.3646 0.457407 74.3406 0.381104H67.1045C67.0943 0.608645 67.0486 0.831478 67.0033 1.05285C66.9827 1.15328 66.9622 1.2538 66.9451 1.35393C66.8203 2.04899 66.6917 2.73908 66.5631 3.43034L66.5609 3.44211C66.5079 3.72682 66.4549 4.01174 66.402 4.29728C66.2631 5.04947 66.1242 5.79898 65.9851 6.5485L65.7071 8.04924C65.6189 8.53011 65.5303 9.01164 65.4413 9.49347L65.4398 9.50186L65.4396 9.50349C65.2853 10.3396 65.131 11.1767 64.9797 12.0127C64.7207 13.406 64.4641 14.7893 64.2075 16.1777C64.1893 16.2766 64.17 16.3752 64.1508 16.4736C64.1097 16.684 64.0687 16.8938 64.0382 17.1058C64.0182 17.2326 63.9609 17.26 63.8513 17.26C63.8198 17.2567 63.7883 17.2578 63.7567 17.2589C63.7409 17.2594 63.7251 17.26 63.7094 17.26C60.2421 17.26 56.7772 17.26 53.3099 17.2549C53.2633 17.2549 53.2231 17.2568 53.189 17.2583C53.005 17.2668 52.9898 17.2675 53.0508 16.934C53.2166 16.0444 53.3758 15.1566 53.535 14.2675L53.5356 14.264L53.6387 13.6896C53.6593 13.5778 53.6699 13.5206 53.7043 13.4914C53.7403 13.4607 53.8025 13.4607 53.9301 13.4607H59.9805C60.0023 13.4607 60.0237 13.4602 60.0451 13.4596C60.0871 13.4585 60.1285 13.4574 60.1697 13.4607C60.2744 13.4707 60.3267 13.4259 60.3441 13.3189C60.5215 12.3225 60.7017 11.3273 60.8814 10.3335L61.0839 9.21365C61.0864 9.20866 61.0839 9.20121 61.0815 9.18877C61.0143 9.14856 60.9429 9.15255 60.8714 9.15653C60.8501 9.15772 60.8287 9.15891 60.8075 9.15891H54.7795C54.483 9.15891 54.4781 9.15891 54.5304 8.87775C54.6325 8.3167 54.7352 7.75688 54.838 7.19706C54.9407 6.63726 55.0435 6.07746 55.1457 5.51642C55.168 5.39451 55.2129 5.34226 55.3473 5.34723C55.5297 5.35219 55.712 5.35055 55.8957 5.3489C55.9882 5.34808 56.081 5.34723 56.1744 5.34723H61.7291C61.7428 5.34723 61.7565 5.34693 61.7702 5.34661C61.8114 5.34568 61.8529 5.34474 61.8959 5.35221C62.0231 5.36465 62.0728 5.29996 62.0953 5.17805C62.1544 4.81533 62.222 4.45597 62.2895 4.09585L62.3343 3.85689C62.4328 3.31202 62.5317 2.76838 62.6308 2.22475C62.7298 1.68112 62.8288 1.13747 62.9273 0.592593C62.9349 0.54905 62.9379 0.50552 62.9408 0.461977C62.9426 0.435854 62.9444 0.409717 62.9471 0.383594H19.8643C19.8324 0.685714 19.7749 0.981484 19.7175 1.27725C19.6944 1.39557 19.6716 1.51388 19.6502 1.63259L19.3739 3.146C19.1895 4.15647 19.0051 5.16694 18.8207 6.17077C18.5765 7.50187 18.335 8.83049 18.0933 10.1591C17.9951 10.6972 17.8955 11.2358 17.796 11.7745L17.7956 11.7763C17.696 12.3155 17.5964 12.855 17.4981 13.3935C17.4923 13.4268 17.4855 13.4588 17.4786 13.4914C17.4705 13.5297 17.4624 13.5684 17.4557 13.61C17.3945 13.61 17.3834 13.5733 17.3732 13.5395C17.3709 13.532 17.3687 13.5247 17.366 13.5179C16.8788 12.1833 16.3925 10.8471 15.906 9.51059L15.9045 9.50662C15.5209 8.45267 15.1373 7.39856 14.753 6.34494C14.2366 4.92785 13.7175 3.51483 13.1978 2.09987L13.1972 2.09854L12.6432 0.590102C12.6295 0.5518 12.6184 0.509721 12.6074 0.467341C12.6004 0.440917 12.5936 0.41437 12.5859 0.388575H5.06837C5.03267 0.575994 4.9967 0.763413 4.96072 0.950832C4.88877 1.32566 4.81679 1.70064 4.74704 2.07547C4.59883 2.87709 4.45111 3.67967 4.30343 4.48195C4.11607 5.49982 3.92875 6.51749 3.74072 7.53173C3.5618 8.50016 3.38219 9.46582 3.20263 10.4313C3.04218 11.2938 2.88179 12.1563 2.72193 13.0203C2.60433 13.6605 2.48705 14.3013 2.36975 14.9424C2.16656 16.0528 1.96324 17.1638 1.75795 18.2726C1.53627 19.4768 1.31457 20.6786 1.09288 21.8777L1.08574 21.898C1.06167 21.9667 1.0407 22.0265 0.990747 22.0718C0.991131 22.0824 0.990761 22.0941 0.990377 22.106C0.98824 22.1722 0.985788 22.2482 1.11032 22.2186C1.13016 22.2087 1.15109 22.2119 1.17241 22.2153C1.18319 22.217 1.19408 22.2186 1.20497 22.2186H8.22684C8.19104 22.1113 8.21222 22.0111 8.23317 21.9121C8.23701 21.894 8.24081 21.8759 8.24428 21.8579C8.3741 21.1293 8.50248 20.3986 8.63098 19.6672C8.74158 19.0377 8.85241 18.4069 8.96415 17.7775C9.09494 17.0435 9.22695 16.31 9.35898 15.5767C9.49099 14.8434 9.62301 14.11 9.75377 13.3761C9.99788 11.9928 10.2395 10.6219 10.4811 9.2435L10.4893 9.19976C10.5239 9.01561 10.5582 8.83312 10.5882 8.64637C10.6541 8.64226 10.6621 8.6806 10.67 8.71791C10.6716 8.72576 10.6732 8.73356 10.6754 8.74091C10.9992 9.66647 11.3206 10.597 11.6394 11.5275C12.4254 13.8006 13.2113 16.0762 13.9972 18.3519L14.0007 18.3621C14.194 18.926 14.3884 19.4882 14.5828 20.0506C14.7994 20.6768 15.016 21.3033 15.2313 21.9325C15.2392 21.959 15.2488 21.9846 15.2582 22.0099C15.2817 22.0723 15.3045 22.1336 15.301 22.2061H41.0271C41.04 21.9518 41.0905 21.7068 41.1401 21.4664C41.158 21.3799 41.1758 21.294 41.1915 21.2084C41.3562 20.3032 41.5239 19.3938 41.6914 18.4855C41.7849 17.9785 41.8784 17.4718 41.9712 16.9663C42.2303 15.5681 42.4893 14.1723 42.7484 12.7765C42.9044 11.9341 43.0594 11.0905 43.2141 10.249L43.215 10.2437L43.4309 9.06933C43.5433 8.45865 43.6571 7.84997 43.7708 7.24156L43.7712 7.23926C43.8766 6.67599 43.9818 6.11295 44.0859 5.54877L44.0926 5.51085C44.1199 5.35369 44.121 5.34723 44.3227 5.34723H47.8697C47.8859 5.34723 47.9014 5.34847 47.917 5.34972C47.9326 5.35096 47.9481 5.35221 47.9644 5.35221C48.0589 5.34226 48.0914 5.39451 48.0789 5.4791C48.0636 5.56637 48.0489 5.65363 48.0343 5.74074L48.0341 5.74219C48.0108 5.88064 47.9878 6.01871 47.9618 6.15584C47.6205 8.00445 47.2768 9.85805 46.9331 11.7091C46.5943 13.5279 46.2556 15.3542 45.9193 17.1728C45.6876 18.4169 45.461 19.656 45.2343 20.9C45.1726 21.2392 45.1123 21.5753 45.0525 21.9097L45.0511 21.917L45.0001 22.2012H112.529C112.539 21.9697 112.584 21.7451 112.628 21.5204C112.648 21.4192 112.669 21.3179 112.686 21.216C112.88 20.1286 113.079 19.0389 113.278 17.9516C113.44 17.0664 113.605 16.1819 113.77 15.2973L113.771 15.2884C113.885 14.6793 113.998 14.0702 114.11 13.4607C114.164 13.1721 114.216 12.8816 114.269 12.5912C114.321 12.3007 114.373 12.0102 114.427 11.7216C114.49 11.7275 114.497 11.7715 114.503 11.8143C114.505 11.825 114.507 11.836 114.509 11.846C114.997 13.4732 115.488 15.1103 115.971 16.7474C116.504 18.5339 117.035 20.3128 117.56 22.0942C117.57 22.1265 117.575 22.1565 117.58 22.1912H124.774C124.669 21.9149 124.567 21.6373 124.464 21.3598C124.315 20.9577 124.167 20.556 124.012 20.1586C123.454 18.664 122.891 17.1706 122.329 15.6801L122.328 15.6777C122.088 15.0401 121.848 14.4031 121.608 13.7668C121.506 13.509 121.511 13.5081 121.777 13.4514L121.78 13.4507C122.45 13.3114 123.115 13.1547 123.743 12.881C125.476 12.1122 126.605 10.8234 127.138 9.00465C127.32 8.36024 127.402 7.7034 127.427 7.03163C127.457 6.38475 127.417 5.7478 127.272 5.11336ZM36.8973 5.54628C36.8616 5.79229 36.8167 6.03714 36.772 6.28083C36.7511 6.39452 36.7303 6.50794 36.7105 6.6211C36.5112 7.71087 36.3069 8.81307 36.1027 9.9078C35.9403 10.7972 35.7741 11.6865 35.6078 12.5767C35.5419 12.9291 35.4759 13.2823 35.4103 13.6349C35.3072 14.2016 35.2035 14.7669 35.0999 15.3323L35.0989 15.3379C34.9949 15.905 34.8909 16.4726 34.7875 17.041L34.787 17.0435C34.7502 17.25 34.7492 17.2549 34.531 17.2549H24.0317C24.0223 17.2549 24.0128 17.2552 24.0031 17.2555C23.9494 17.2567 23.8927 17.2581 23.825 17.2202C23.9146 16.7264 24.0043 16.2382 24.0934 15.7524C24.1628 15.374 24.232 14.997 24.3008 14.6202C24.3444 14.3937 24.3866 14.1672 24.4283 13.9427L24.4752 13.6921L24.4764 13.685C24.4968 13.5726 24.507 13.516 24.5409 13.4874C24.5756 13.4582 24.6348 13.4582 24.7541 13.4582H31.0661C31.3825 13.4582 31.3874 13.4582 31.4473 13.1347C31.6614 11.9455 31.8757 10.7612 32.0924 9.56445C32.0981 9.53127 32.1043 9.49863 32.1103 9.466C32.1225 9.40076 32.1347 9.33554 32.1447 9.26589C32.1671 9.11424 32.1646 9.11412 32.0105 9.10668L31.8209 9.10666H25.6733C25.5209 9.10666 25.4456 9.10666 25.4147 9.06966C25.3846 9.03349 25.3971 8.96198 25.4217 8.82054C25.4947 8.40116 25.5675 7.98141 25.6402 7.56128C25.7535 6.90725 25.8668 6.2519 25.9822 5.59603L25.9826 5.59351C26.0245 5.34969 26.0253 5.34475 26.2736 5.34475H33.2481H36.5586H36.7255C36.9197 5.34972 36.9322 5.36216 36.8973 5.54628ZM118.726 10.1865C119.394 9.87049 119.892 9.3903 120.166 8.69863C120.353 8.24331 120.398 7.77058 120.383 7.29038C120.378 6.34742 119.852 5.55623 118.978 5.188C118.527 5.00388 118.061 4.91431 117.58 4.86456C117.138 4.81811 116.691 4.81885 116.244 4.81959C116.188 4.81967 116.132 4.81977 116.076 4.81977C115.89 4.81977 115.797 4.81977 115.743 4.86546C115.689 4.91096 115.674 5.00177 115.643 5.18302C115.526 5.80422 115.412 6.42423 115.297 7.04393C115.178 7.69503 115.058 8.34578 114.935 8.99719C114.892 9.23096 114.848 9.46595 114.805 9.70097C114.761 9.93869 114.717 10.1764 114.674 10.4129C114.651 10.5257 114.64 10.5829 114.664 10.6123C114.688 10.6424 114.749 10.643 114.873 10.6443H115.847C115.913 10.6439 115.978 10.6438 116.044 10.6437C116.414 10.6432 116.788 10.6427 117.16 10.592C117.705 10.5273 118.236 10.4154 118.726 10.1865Z" fill="#838CA6"/>
<path fill-rule="evenodd" clip-rule="evenodd" d="M132.562 19.1212C132.533 19.1285 132.503 19.1365 132.469 19.1459C132.867 19.4338 133.128 19.8152 133.391 20.1992C133.487 20.3393 133.584 20.4799 133.687 20.6163C133.543 20.7017 133.404 20.6916 133.271 20.682C133.23 20.679 133.189 20.6761 133.149 20.6761C133.091 20.6761 133.06 20.6296 133.031 20.5841C133.02 20.5673 133.009 20.5507 132.997 20.5368C132.916 20.427 132.837 20.3173 132.759 20.208C132.618 20.0123 132.477 19.8177 132.332 19.6261C132.078 19.2902 131.761 19.1684 131.358 19.2554C131.322 19.2646 131.282 19.2622 131.242 19.2598C131.175 19.2558 131.111 19.252 131.071 19.3052C131.029 19.3604 131.042 19.4384 131.055 19.5139C131.06 19.544 131.065 19.5736 131.066 19.6012C131.074 19.7956 131.084 19.9891 131.094 20.1835C131.101 20.3173 131.108 20.4515 131.114 20.5865L131.114 20.5911C131.119 20.7611 131.119 20.7856 130.924 20.7905C130.915 20.7908 130.906 20.7912 130.898 20.7914C130.648 20.8008 130.643 20.801 130.633 20.5293C130.623 20.3276 130.615 20.1252 130.607 19.9222C130.599 19.7246 130.59 19.5263 130.581 19.3275C130.56 18.9645 130.541 18.6039 130.522 18.2406C130.514 18.0884 130.507 17.9358 130.499 17.7824C130.498 17.7709 130.496 17.7601 130.495 17.7494C130.493 17.73 130.491 17.7113 130.491 17.6905C130.482 17.5212 130.478 17.4372 130.518 17.3942C130.557 17.3519 130.639 17.3495 130.802 17.3445C130.988 17.3392 131.174 17.3282 131.361 17.3174C131.692 17.2981 132.024 17.2787 132.357 17.2898C132.608 17.2898 132.837 17.3496 133.022 17.5336C133.507 18.0189 133.338 18.8373 132.695 19.0837C132.652 19.0976 132.609 19.1087 132.562 19.1212ZM131.765 18.8175C131.894 18.8144 132.023 18.8112 132.15 18.8001C132.277 18.7826 132.399 18.7528 132.511 18.6956C132.715 18.5886 132.808 18.4194 132.803 18.1954C132.79 17.974 132.633 17.7849 132.404 17.7277C132.267 17.6829 132.13 17.6631 131.986 17.6829C131.808 17.717 131.631 17.7207 131.454 17.7245C131.372 17.7262 131.29 17.728 131.208 17.7328C130.974 17.7426 130.95 17.7526 130.984 17.9691C131.006 18.1036 131.008 18.238 131.011 18.3725C131.013 18.4718 131.015 18.5713 131.024 18.6707C131.025 18.6804 131.027 18.6896 131.028 18.6982C131.046 18.8405 131.047 18.8449 131.211 18.8449H131.281C131.442 18.8256 131.604 18.8215 131.765 18.8175Z" fill="#838CA6"/>
<path fill-rule="evenodd" clip-rule="evenodd" d="M131.26 15.8368C132.937 15.5407 134.493 16.5533 134.944 18.1382C134.96 18.1953 134.966 18.2536 134.972 18.3116C134.981 18.4025 134.991 18.4925 135.037 18.5761V19.427C134.996 19.492 134.992 19.5663 134.987 19.6424C134.985 19.6915 134.982 19.7415 134.969 19.7903C134.7 20.7881 134.1 21.507 133.166 21.95C133.021 22.0185 132.868 22.0623 132.714 22.1064C132.605 22.1375 132.496 22.1685 132.389 22.2086H131.255C131.168 22.1547 131.071 22.131 130.974 22.1075C130.92 22.0941 130.865 22.0808 130.812 22.0619C129.581 21.5967 128.834 20.7283 128.647 19.4196C128.406 17.7228 129.581 16.1304 131.26 15.8368ZM129.185 19.0116C129.188 20.5965 130.53 21.6539 131.831 21.6588C133.308 21.6688 134.536 20.37 134.479 19.0116C134.518 17.6655 133.365 16.3693 131.843 16.3693C130.363 16.3693 129.18 17.5437 129.185 19.0116Z" fill="#838CA6"/>
</svg>
