<svg width="291" height="151" viewBox="0 0 291 151" fill="none" xmlns="http://www.w3.org/2000/svg">
<g clip-path="url(#clip0_68_3662)">
<rect x="11.6334" y="78.1643" width="280" height="54" rx="12" transform="rotate(3.85806 11.6334 78.1643)" fill="#FFC41D"/>
<path d="M41.9609 111.909L34.3775 111.398L34.7603 105.721L42.3437 106.232C43.3772 106.302 44.2269 106.184 44.8928 105.878C45.5588 105.572 46.0592 105.122 46.3939 104.527C46.7435 103.919 46.9447 103.225 46.9974 102.442C47.0539 101.605 46.9526 100.819 46.6934 100.086C46.4481 99.3541 46.0189 98.75 45.4057 98.2737C44.7934 97.7835 43.9705 97.5035 42.9371 97.4338L38.1189 97.1089L36.4448 121.933L29.0919 121.437L31.1488 90.936L43.3199 91.7568C45.7639 91.9216 47.8356 92.5102 49.535 93.5227C51.2484 94.5361 52.5271 95.8569 53.3713 97.4851C54.2164 99.0994 54.5717 100.905 54.437 102.902C54.3042 104.871 53.7135 106.557 52.6649 107.959C51.6164 109.362 50.1775 110.415 48.3483 111.119C46.534 111.811 44.4049 112.074 41.9609 111.909ZM67.8582 99.851L58.7969 123.44L50.8993 122.908L64.1637 93.1624L69.1704 93.5001L67.8582 99.851ZM72.3925 124.357L66.5594 99.7634L66.0281 93.2882L71.0976 93.63L80.311 124.891L72.3925 124.357ZM72.8663 112.962L72.4834 118.639L56.8349 117.584L57.2178 111.907L72.8663 112.962ZM86.9975 94.7023L91.7189 108.32L98.2469 95.4609L106.165 95.9949L95.0435 114.879L94.3046 125.835L86.826 125.33L87.5648 114.374L79.0581 94.1669L86.9975 94.7023ZM122.736 97.1124L128.727 97.5164L134.104 119.196L142.344 98.4347L148.335 98.8388L135.908 128.64L131.048 128.313L122.736 97.1124ZM119.091 96.8666L125.291 97.2848L124.867 120.741L124.387 127.863L117.034 127.368L119.091 96.8666ZM145.779 98.6664L152.001 99.086L149.944 129.587L142.57 129.09L143.05 121.967L145.779 98.6664ZM181.535 115.787L181.452 117.023C181.295 119.356 180.825 121.428 180.044 123.241C179.277 125.042 178.256 126.558 176.98 127.791C175.705 129.009 174.234 129.913 172.567 130.502C170.901 131.077 169.09 131.299 167.135 131.167C165.166 131.034 163.388 130.571 161.8 129.776C160.227 128.969 158.884 127.875 157.77 126.495C156.672 125.102 155.856 123.462 155.324 121.574C154.807 119.674 154.627 117.557 154.784 115.225L154.868 113.989C155.025 111.657 155.488 109.583 156.255 107.769C157.037 105.956 158.058 104.44 159.319 103.22C160.594 101.987 162.065 101.083 163.731 100.508C165.413 99.9203 167.238 99.6926 169.207 99.8254C171.162 99.9573 172.926 100.427 174.499 101.235C176.087 102.029 177.43 103.123 178.529 104.516C179.628 105.894 180.443 107.535 180.975 109.436C181.506 111.338 181.693 113.455 181.535 115.787ZM173.994 116.52L174.08 115.242C174.182 113.734 174.139 112.399 173.951 111.235C173.778 110.059 173.466 109.063 173.016 108.247C172.566 107.431 171.984 106.803 171.27 106.362C170.571 105.908 169.754 105.649 168.818 105.586C167.841 105.52 166.975 105.665 166.222 106.021C165.469 106.363 164.822 106.909 164.28 107.658C163.739 108.407 163.303 109.353 162.974 110.495C162.659 111.624 162.451 112.943 162.349 114.451L162.263 115.729C162.162 117.224 162.192 118.558 162.351 119.733C162.525 120.896 162.83 121.891 163.265 122.72C163.714 123.55 164.288 124.192 164.987 124.646C165.7 125.101 166.545 125.361 167.522 125.427C168.458 125.49 169.303 125.344 170.056 124.988C170.81 124.632 171.458 124.072 172 123.309C172.557 122.547 172.999 121.602 173.328 120.474C173.671 119.332 173.893 118.015 173.994 116.52ZM186.335 101.401L198.339 102.211C200.685 102.369 202.701 102.856 204.385 103.671C206.07 104.486 207.334 105.609 208.177 107.041C209.035 108.474 209.396 110.196 209.26 112.207C209.142 113.952 208.771 115.393 208.148 116.53C207.524 117.666 206.697 118.585 205.668 119.288C204.653 119.977 203.487 120.522 202.169 120.925L199.669 122.124L189.592 121.444L189.933 115.764L197.391 116.267C198.327 116.33 199.113 116.215 199.75 115.921C200.387 115.628 200.88 115.184 201.229 114.59C201.592 113.983 201.803 113.247 201.862 112.381C201.921 111.501 201.811 110.736 201.533 110.086C201.254 109.436 200.811 108.922 200.206 108.545C199.614 108.168 198.864 107.949 197.956 107.888L193.305 107.574L191.631 132.398L184.278 131.902L186.335 101.401ZM200.974 133.028L195.139 119.083L202.934 119.566L208.872 133.245L208.851 133.56L200.974 133.028ZM233.638 129.549L233.256 135.205L217 134.109L217.381 128.453L233.638 129.549ZM221.676 103.785L219.619 134.286L212.266 133.79L214.323 103.289L221.676 103.785ZM232.402 116.671L232.033 122.139L217.872 121.184L218.24 115.716L232.402 116.671ZM235.376 104.709L234.993 110.386L218.674 109.285L219.057 103.608L235.376 104.709ZM245.913 105.419L243.607 126.202L237.867 125.815L238.371 104.911L245.913 105.419ZM236.339 132.236C236.407 131.23 236.827 130.417 237.598 129.795C238.371 129.16 239.336 128.881 240.495 128.96C241.655 129.038 242.567 129.443 243.233 130.175C243.914 130.895 244.221 131.757 244.153 132.763C244.085 133.768 243.665 134.589 242.893 135.224C242.135 135.846 241.177 136.118 240.018 136.04C238.859 135.962 237.939 135.563 237.258 134.844C236.578 134.111 236.272 133.241 236.339 132.236ZM257.77 106.219L255.463 127.002L249.723 126.615L250.228 105.71L257.77 106.219ZM248.196 133.035C248.264 132.03 248.684 131.216 249.455 130.595C250.227 129.96 251.193 129.681 252.352 129.759C253.511 129.837 254.424 130.243 255.09 130.975C255.771 131.694 256.078 132.557 256.01 133.562C255.942 134.568 255.522 135.388 254.75 136.024C253.992 136.646 253.034 136.918 251.875 136.84C250.716 136.762 249.796 136.363 249.115 135.644C248.435 134.91 248.128 134.041 248.196 133.035ZM269.627 107.018L267.32 127.801L261.58 127.414L262.085 106.51L269.627 107.018ZM260.053 133.835C260.121 132.829 260.54 132.016 261.312 131.395C262.084 130.759 263.05 130.481 264.209 130.559C265.368 130.637 266.281 131.042 266.947 131.775C267.628 132.494 267.935 133.356 267.867 134.362C267.799 135.367 267.379 136.188 266.607 136.823C265.849 137.446 264.891 137.718 263.732 137.639C262.573 137.561 261.652 137.162 260.971 136.443C260.291 135.71 259.985 134.84 260.053 133.835Z" fill="#111628"/>
</g>
<g clip-path="url(#clip1_68_3662)">
<rect y="38.7018" width="275" height="54" rx="12" transform="rotate(-8.09031 0 38.7018)" fill="#FFE9B6"/>
<path d="M32.6335 73.6857L34.7495 45.3067L38.3457 44.7955L40.6335 46.8667L38.1787 75.6968L34.2084 76.2612L32.6335 73.6857ZM27.1206 46.3911L36.1552 73.3972L35.2061 76.1194L30.6122 76.7724L19.8867 47.4194L27.1206 46.3911ZM47.5259 71.6324L48.6561 43.3299L55.8692 42.3045L53.7483 73.4836L49.1751 74.1337L47.5259 71.6324ZM40.944 44.4261L51.0537 71.237L50.1729 73.9919L46.2025 74.5563L35.6595 47.5313L37.3687 44.9344L40.944 44.4261ZM83.071 63.5895L83.8688 69.202L67.738 71.495L66.9402 65.8825L83.071 63.5895ZM66.0341 40.8596L70.3364 71.1257L63.0401 72.1628L58.7378 41.8968L66.0341 40.8596ZM79.1957 51.2464L79.967 56.6719L65.9149 58.6694L65.1436 53.2439L79.1957 51.2464ZM79.6289 38.9271L80.4297 44.5604L64.2365 46.8623L63.4357 41.229L79.6289 38.9271ZM106.891 41.5412L102.91 66.4954L95.0731 67.6094L101.892 35.7625L106.86 35.0563L106.891 41.5412ZM116.401 64.5777L105.602 41.7244L103.742 35.4995L108.772 34.7844L124.258 63.4607L116.401 64.5777ZM114.505 53.3316L115.306 58.965L99.7779 61.1722L98.9772 55.5389L114.505 53.3316ZM145.682 54.6895L146.48 60.302L131.18 62.4768L130.383 56.8643L145.682 54.6895ZM129.476 31.8414L133.779 62.1074L126.482 63.1446L122.18 32.8785L129.476 31.8414ZM154.197 56.4057L156.313 28.0266L159.909 27.5154L162.197 29.5866L159.742 58.4168L155.771 58.9812L154.197 56.4057ZM148.684 29.1111L157.718 56.1172L156.769 58.8393L152.175 59.4924L141.45 30.1394L148.684 29.1111ZM169.089 54.3524L170.219 26.0498L177.432 25.0245L175.311 56.2036L170.738 56.8537L169.089 54.3524ZM162.507 27.1461L172.617 53.957L171.736 56.7118L167.766 57.2762L157.223 30.2513L158.932 27.6543L162.507 27.1461ZM193.116 29.2845L189.135 54.2386L181.298 55.3526L188.117 23.5057L193.085 22.7995L193.116 29.2845ZM202.626 52.3209L191.827 29.4677L189.967 23.2427L194.997 22.5276L210.483 51.204L202.626 52.3209ZM200.73 41.0749L201.531 46.7082L186.003 48.9155L185.202 43.2822L200.73 41.0749ZM210.775 20.2849L218.213 32.6305L221.938 18.6981L229.795 17.5812L222.824 38.3585L224.369 49.2301L216.948 50.285L215.403 39.4134L202.897 21.4048L210.775 20.2849ZM250.436 37.3176C250.369 36.8464 250.239 36.4336 250.048 36.0791C249.854 35.7108 249.546 35.3869 249.125 35.1075C248.704 34.8281 248.116 34.5724 247.362 34.3402C246.62 34.0923 245.654 33.862 244.464 33.6493C243.071 33.395 241.718 33.0783 240.406 32.6993C239.092 32.3065 237.896 31.8048 236.82 31.1944C235.742 30.5701 234.846 29.7925 234.134 28.8616C233.42 27.9169 232.967 26.7655 232.774 25.4074C232.589 24.1047 232.713 22.8923 233.148 21.7702C233.58 20.6343 234.263 19.6252 235.198 18.743C236.145 17.8449 237.298 17.1014 238.656 16.5125C240.013 15.9097 241.529 15.4891 243.206 15.2507C245.423 14.9355 247.433 15.0458 249.234 15.5815C251.046 16.1014 252.531 17.0002 253.689 18.2778C254.858 19.5395 255.578 21.1266 255.85 23.039L248.595 24.0703C248.487 23.3081 248.232 22.6586 247.83 22.1219C247.443 21.5832 246.914 21.1919 246.243 20.9479C245.572 20.704 244.765 20.649 243.823 20.7829C242.908 20.913 242.159 21.1609 241.575 21.5267C240.99 21.8925 240.572 22.3336 240.321 22.8501C240.067 23.3527 239.979 23.8812 240.058 24.4355C240.123 24.8928 240.307 25.2909 240.61 25.6296C240.924 25.9525 241.34 26.2398 241.856 26.4915C242.386 26.7413 243.012 26.9635 243.732 27.158C244.467 27.3505 245.283 27.5243 246.182 27.6793C247.862 27.9635 249.371 28.3357 250.709 28.7959C252.059 29.2403 253.22 29.8033 254.194 30.4849C255.179 31.1507 255.965 31.9579 256.553 32.9065C257.154 33.8531 257.545 34.9639 257.726 36.2389C257.919 37.597 257.827 38.84 257.45 39.9681C257.074 41.0962 256.445 42.0974 255.566 42.9717C254.684 43.8322 253.584 44.5471 252.265 45.1162C250.947 45.6854 249.442 46.0902 247.751 46.3305C246.199 46.5512 244.64 46.5748 243.075 46.4015C241.521 46.2124 240.076 45.7957 238.74 45.1514C237.403 44.4933 236.275 43.572 235.357 42.3876C234.451 41.1874 233.871 39.6934 233.617 37.9057L240.934 36.8656C241.06 37.7525 241.285 38.4841 241.607 39.0604C241.929 39.6367 242.346 40.0794 242.856 40.3885C243.365 40.6838 243.963 40.8674 244.652 40.9391C245.339 40.997 246.112 40.9649 246.971 40.8427C247.9 40.7107 248.629 40.4727 249.16 40.1286C249.689 39.7707 250.053 39.3513 250.254 38.8704C250.452 38.3757 250.513 37.8581 250.436 37.3176Z" fill="#111628"/>
</g>
<defs>
<clipPath id="clip0_68_3662">
<rect x="11.6334" y="78.1643" width="280" height="54" rx="12" transform="rotate(3.85806 11.6334 78.1643)" fill="white"/>
</clipPath>
<clipPath id="clip1_68_3662">
<rect y="38.7018" width="275" height="54" rx="12" transform="rotate(-8.09031 0 38.7018)" fill="white"/>
</clipPath>
</defs>
</svg>
