<svg width="24" height="25" viewBox="0 0 24 25" fill="none" xmlns="http://www.w3.org/2000/svg">
<path d="M21 2.5791L19 4.5791M19 4.5791L22 7.5791L18.5 11.0791L15.5 8.0791M19 4.5791L15.5 8.0791M11.39 12.1891C11.9063 12.6986 12.3168 13.3051 12.5978 13.9739C12.8787 14.6426 13.0246 15.3604 13.027 16.0857C13.0295 16.8111 12.8884 17.5298 12.6119 18.2004C12.3354 18.871 11.9291 19.4803 11.4161 19.9932C10.9032 20.5062 10.2939 20.9125 9.6233 21.189C8.95268 21.4655 8.234 21.6066 7.50863 21.6041C6.78327 21.6017 6.06554 21.4558 5.39679 21.1749C4.72804 20.8939 4.12147 20.4834 3.612 19.9671C2.61013 18.9298 2.05576 17.5405 2.06829 16.0984C2.08082 14.6563 2.65925 13.2768 3.679 12.2571C4.69874 11.2374 6.07821 10.6589 7.52029 10.6464C8.96238 10.6339 10.3517 11.1882 11.389 12.1901L11.39 12.1891ZM11.39 12.1891L15.5 8.0791" stroke="#3A435E" stroke-width="2" stroke-linecap="round" stroke-linejoin="round"/>
</svg>
