<svg width="24" height="25" viewBox="0 0 24 25" fill="none" xmlns="http://www.w3.org/2000/svg">
<path d="M18 8.5791C19.6569 8.5791 21 7.23596 21 5.5791C21 3.92225 19.6569 2.5791 18 2.5791C16.3431 2.5791 15 3.92225 15 5.5791C15 7.23596 16.3431 8.5791 18 8.5791Z" stroke="#3A435E" stroke-width="2" stroke-linecap="round" stroke-linejoin="round"/>
<path d="M6 15.5791C7.65685 15.5791 9 14.236 9 12.5791C9 10.9222 7.65685 9.5791 6 9.5791C4.34315 9.5791 3 10.9222 3 12.5791C3 14.236 4.34315 15.5791 6 15.5791Z" stroke="#3A435E" stroke-width="2" stroke-linecap="round" stroke-linejoin="round"/>
<path d="M18 22.5791C19.6569 22.5791 21 21.236 21 19.5791C21 17.9222 19.6569 16.5791 18 16.5791C16.3431 16.5791 15 17.9222 15 19.5791C15 21.236 16.3431 22.5791 18 22.5791Z" stroke="#3A435E" stroke-width="2" stroke-linecap="round" stroke-linejoin="round"/>
<path d="M8.59 14.0891L15.42 18.0691" stroke="#3A435E" stroke-width="2" stroke-linecap="round" stroke-linejoin="round"/>
<path d="M15.41 7.08911L8.59 11.0691" stroke="#3A435E" stroke-width="2" stroke-linecap="round" stroke-linejoin="round"/>
</svg>
