<svg width="22" height="20" viewBox="0 0 22 20" fill="none" xmlns="http://www.w3.org/2000/svg">
<path d="M20.1244 0.746839C20.1244 0.746839 22.1596 -0.0755891 21.99 1.92174C21.9334 2.74418 21.4247 5.62267 21.0289 8.73618L19.6722 17.9591C19.6722 17.9591 19.5591 19.3103 18.5415 19.5453C17.5239 19.7802 15.9976 18.7228 15.7149 18.4878C15.4887 18.3116 11.475 15.6681 10.0617 14.3757C9.66592 14.0232 9.21366 13.3183 10.1182 12.4958L16.0541 6.62137C16.7325 5.91642 17.4109 4.27156 14.5842 6.26889L6.66972 11.8497C6.66972 11.8497 5.76521 12.4371 4.06927 11.9084L0.394649 10.7335C0.394649 10.7335 -0.962128 9.85234 1.3557 8.97112C7.00894 6.2101 13.9624 3.39034 20.1244 0.746839Z" fill="white"/>
</svg>
