<svg width="13" height="13" viewBox="0 0 13 13" fill="none" xmlns="http://www.w3.org/2000/svg">
<path fill-rule="evenodd" clip-rule="evenodd" d="M12.7463 0.816252C12.6978 0.699177 12.6262 0.589436 12.5314 0.494053C12.53 0.492635 12.5285 0.491221 12.5271 0.489811C12.3463 0.310092 12.0972 0.199036 11.8221 0.199036H11.822H1.82214C1.26986 0.199036 0.822144 0.646751 0.822144 1.19904C0.822144 1.75132 1.26986 2.19904 1.82214 2.19904H9.40793L1.11504 10.4919C0.724512 10.8825 0.724512 11.5156 1.11504 11.9061C1.50556 12.2967 2.13873 12.2967 2.52925 11.9061L10.8221 3.61325V11.199C10.8221 11.7513 11.2699 12.199 11.8221 12.199C12.3744 12.199 12.8221 11.7513 12.8221 11.199V1.19973V1.19904C12.8221 1.19804 12.8221 1.19704 12.8221 1.19604C12.8217 1.06154 12.7948 0.933289 12.7463 0.816252Z" fill="white"/>
</svg>
